<svg width="18" height="20" viewBox="0 0 18 20" fill="none" xmlns="http://www.w3.org/2000/svg">
<path d="M17.1593 15.5861C16.8569 16.2848 16.4988 16.928 16.084 17.5194C15.5186 18.3255 15.0557 18.8835 14.6989 19.1934C14.1458 19.702 13.5533 19.9625 12.9187 19.9773C12.4632 19.9773 11.9138 19.8477 11.2743 19.5847C10.6327 19.323 10.0431 19.1934 9.50401 19.1934C8.93859 19.1934 8.33219 19.323 7.68357 19.5847C7.03396 19.8477 6.51064 19.9847 6.11053 19.9983C5.50203 20.0242 4.89551 19.7563 4.2901 19.1934C3.90369 18.8563 3.42037 18.2786 2.84138 17.4601C2.22016 16.586 1.70944 15.5725 1.30933 14.417C0.880824 13.1689 0.666016 11.9603 0.666016 10.7902C0.666016 9.44984 0.955636 8.29383 1.53574 7.32509C1.99165 6.54697 2.59818 5.93316 3.35729 5.48255C4.1164 5.03195 4.93662 4.80233 5.81993 4.78764C6.30324 4.78764 6.93705 4.93714 7.72468 5.23096C8.51009 5.52576 9.01439 5.67526 9.2355 5.67526C9.4008 5.67526 9.96103 5.50045 10.9107 5.15195C11.8089 4.82875 12.5669 4.69492 13.1878 4.74764C14.8705 4.88344 16.1347 5.54675 16.9754 6.74178C15.4705 7.6536 14.7261 8.93072 14.7409 10.5691C14.7545 11.8452 15.2174 12.9071 16.1272 13.7503C16.5396 14.1417 17.0001 14.4441 17.5124 14.6589C17.4013 14.9812 17.284 15.2898 17.1593 15.5861V15.5861ZM13.3002 0.400114C13.3002 1.40034 12.9348 2.33425 12.2064 3.19867C11.3274 4.2263 10.2642 4.8201 9.1113 4.7264C9.09661 4.60641 9.08809 4.48011 9.08809 4.3474C9.08809 3.38718 9.5061 2.35956 10.2484 1.51934C10.619 1.09392 11.0904 0.74019 11.662 0.458013C12.2323 0.180046 12.7718 0.0263242 13.2792 0C13.294 0.133715 13.3002 0.267438 13.3002 0.400101V0.400114Z" fill="black"/>
</svg>
