<svg width="16" height="15" viewBox="0 0 16 15" fill="none" xmlns="http://www.w3.org/2000/svg">
<path d="M11.1811 7.74352C11.3371 7.58752 11.4149 7.36921 11.4149 7.16653C11.4149 6.9482 11.3369 6.74543 11.1811 6.58953L7.40702 2.81549C7.07947 2.48794 6.56494 2.48794 6.23738 2.81549C5.90983 3.14305 5.90983 3.65758 6.23738 3.98513L8.60788 6.35563L1.49647 6.35552C1.04426 6.35552 0.669922 6.72983 0.669922 7.18207C0.669922 7.63427 1.04423 8.00861 1.49647 8.00861H8.62348L6.23741 10.3635C5.90985 10.6911 5.90985 11.2056 6.23741 11.5332C6.56496 11.8607 7.07949 11.8607 7.40705 11.5332L11.1811 7.74352Z" fill="white"/>
<path d="M10.5274 1.06873C10.5274 1.52094 10.9017 1.89528 11.3539 1.89528H13.8492V12.4532H11.3539C10.9017 12.4532 10.5274 12.8275 10.5274 13.2798C10.5274 13.732 10.9017 14.1063 11.3539 14.1063H14.6757C15.1279 14.1063 15.5022 13.732 15.5022 13.2798L15.5021 1.06873C15.5021 0.616528 15.1278 0.242188 14.6756 0.242188H11.3382C10.886 0.242188 10.5273 0.600849 10.5273 1.06873H10.5274Z" fill="white"/>
</svg>
