<svg width="17" height="16" viewBox="0 0 17 16" fill="none" xmlns="http://www.w3.org/2000/svg">
<path d="M13.8814 2.62282C10.9228 -0.335697 6.1194 -0.368939 3.11102 2.53969L2.04728 1.47596C1.9143 1.34297 1.7149 1.29312 1.51536 1.34297C1.36579 1.39294 1.19965 1.55908 1.16638 1.7419L0.351923 5.66443C0.318649 5.84727 0.368502 6.01353 0.484905 6.12982C0.617887 6.2628 0.784022 6.31265 0.966852 6.2628L4.88938 5.44835C5.0888 5.41507 5.23848 5.28209 5.28831 5.08269C5.33817 4.89985 5.28831 4.68376 5.15533 4.55076L4.07503 3.50373C6.55157 1.12701 10.4907 1.16028 12.9173 3.58686C15.3772 6.04672 15.3772 10.0524 12.9173 12.5289C11.7206 13.7256 10.1416 14.3738 8.44633 14.3738C6.75097 14.3738 5.17201 13.709 3.97531 12.5289C3.04457 11.5982 2.42962 10.418 2.21352 9.12162C2.14709 8.75596 1.798 8.48999 1.43234 8.55654C1.06668 8.62297 0.817397 8.97206 0.86726 9.33772C1.13322 10.9167 1.88113 12.3461 3.0113 13.4763C4.45728 14.9223 6.38534 15.7202 8.44633 15.7202C10.5073 15.7202 12.4353 14.9224 13.8814 13.4763C16.8731 10.4846 16.8731 5.61464 13.8812 2.62288L13.8814 2.62282Z" fill="#535D6F"/>
<path d="M8.49594 3.23828C8.11369 3.23828 7.81445 3.5374 7.81445 3.91977V8.05837C7.81445 8.30763 7.94743 8.54032 8.16355 8.65672L10.3576 9.87002C10.4573 9.93645 10.5737 9.95314 10.69 9.95314C10.9226 9.95314 11.1553 9.82016 11.2883 9.60405C11.4711 9.27166 11.3547 8.85614 11.0223 8.67331L9.17743 7.65943V3.91973C9.17743 3.53748 8.87819 3.23836 8.49594 3.23836L8.49594 3.23828Z" fill="#535D6F"/>
</svg>
