<svg width="22" height="22" viewBox="0 0 22 22" fill="none" xmlns="http://www.w3.org/2000/svg">
<path fill-rule="evenodd" clip-rule="evenodd" d="M10.6628 3.91277C10.464 4.12603 10.3559 4.4081 10.361 4.69955C10.3661 4.991 10.4842 5.26908 10.6903 5.4752C10.8965 5.68132 11.1745 5.79939 11.466 5.80453C11.7574 5.80967 12.0395 5.70149 12.2528 5.50277L14.1278 3.62777C14.4065 3.34904 14.7374 3.12794 15.1016 2.97709C15.4658 2.82624 15.8561 2.7486 16.2503 2.7486C16.6445 2.7486 17.0348 2.82624 17.399 2.97709C17.7631 3.12794 18.094 3.34904 18.3728 3.62777C18.6515 3.9065 18.8726 4.2374 19.0234 4.60158C19.1743 4.96576 19.2519 5.35608 19.2519 5.75027C19.2519 6.14445 19.1743 6.53478 19.0234 6.89896C18.8726 7.26314 18.6515 7.59404 18.3728 7.87277L14.6228 11.6228C14.3441 11.9017 14.0133 12.123 13.6491 12.2739C13.2849 12.4249 12.8945 12.5026 12.5003 12.5026C12.106 12.5026 11.7156 12.4249 11.3514 12.2739C10.9873 12.123 10.6564 11.9017 10.3778 11.6228C10.1645 11.424 9.88243 11.3159 9.59098 11.321C9.29953 11.3261 9.02145 11.4442 8.81533 11.6503C8.60921 11.8565 8.49115 12.1345 8.486 12.426C8.48086 12.7174 8.58905 12.9995 8.78777 13.2128C9.27528 13.7003 9.85406 14.0871 10.4911 14.351C11.128 14.6148 11.8108 14.7506 12.5003 14.7506C13.1898 14.7506 13.8725 14.6148 14.5095 14.351C15.1465 14.0871 15.7253 13.7003 16.2128 13.2128L19.9628 9.46277C20.9474 8.47815 21.5005 7.14272 21.5005 5.75027C21.5005 4.35781 20.9474 3.02238 19.9628 2.03777C18.9782 1.05315 17.6427 0.5 16.2503 0.5C14.8578 0.5 13.5224 1.05315 12.5378 2.03777L10.6628 3.91277ZM3.62777 18.3728C3.34884 18.0941 3.12756 17.7633 2.97659 17.3991C2.82562 17.0349 2.74791 16.6445 2.74791 16.2503C2.74791 15.856 2.82562 15.4656 2.97659 15.1014C3.12756 14.7373 3.34884 14.4064 3.62777 14.1278L7.37777 10.3778C7.65639 10.0988 7.98725 9.87756 8.35145 9.72659C8.71564 9.57561 9.10602 9.49791 9.50027 9.49791C9.89451 9.49791 10.2849 9.57561 10.6491 9.72659C11.0133 9.87756 11.3441 10.0988 11.6228 10.3778C11.836 10.5765 12.1181 10.6847 12.4096 10.6795C12.701 10.6744 12.9791 10.5563 13.1852 10.3502C13.3913 10.1441 13.5094 9.866 13.5145 9.57455C13.5197 9.2831 13.4115 9.00103 13.2128 8.78777C12.7253 8.3002 12.1465 7.91344 11.5095 7.64957C10.8725 7.3857 10.1898 7.24989 9.50027 7.24989C8.81078 7.24989 8.12805 7.3857 7.49106 7.64957C6.85406 7.91344 6.27528 8.3002 5.78777 8.78777L2.03777 12.5378C1.05315 13.5224 0.5 14.8578 0.5 16.2503C0.5 17.6427 1.05315 18.9782 2.03777 19.9628C3.02238 20.9474 4.35781 21.5005 5.75027 21.5005C7.14272 21.5005 8.47815 20.9474 9.46277 19.9628L11.3378 18.0878C11.5365 17.8745 11.6447 17.5924 11.6395 17.301C11.6344 17.0095 11.5163 16.7315 11.3102 16.5253C11.1041 16.3192 10.826 16.2011 10.5346 16.196C10.2431 16.1909 9.96103 16.299 9.74777 16.4978L7.87277 18.3728C7.59415 18.6517 7.26328 18.873 6.89909 19.0239C6.53489 19.1749 6.14451 19.2526 5.75027 19.2526C5.35602 19.2526 4.96564 19.1749 4.60145 19.0239C4.23725 18.873 3.90639 18.6517 3.62777 18.3728Z" fill="white"/>
</svg>
