<svg width="8" height="8" viewBox="0 0 8 8" fill="none" xmlns="http://www.w3.org/2000/svg">
<path d="M4.9936 3.99927L7.77681 1.21606C7.9089 1.08421 7.9832 0.905277 7.98336 0.718638C7.98353 0.531999 7.90954 0.352939 7.77769 0.220849C7.64583 0.0887584 7.4669 0.0144583 7.28026 0.0142935C7.09362 0.0141287 6.91456 0.0881126 6.78247 0.21997L3.99927 3.00317L1.21606 0.21997C1.08397 0.0878795 0.904821 0.0136719 0.718017 0.0136719C0.531213 0.0136719 0.35206 0.0878795 0.21997 0.21997C0.0878795 0.35206 0.0136719 0.531213 0.0136719 0.718017C0.0136719 0.904821 0.0878795 1.08397 0.21997 1.21606L3.00317 3.99927L0.21997 6.78247C0.0878795 6.91456 0.0136719 7.09371 0.0136719 7.28052C0.0136719 7.46732 0.0878795 7.64647 0.21997 7.77856C0.35206 7.91066 0.531213 7.98486 0.718017 7.98486C0.904821 7.98486 1.08397 7.91066 1.21606 7.77856L3.99927 4.99536L6.78247 7.77856C6.91456 7.91066 7.09371 7.98486 7.28052 7.98486C7.46732 7.98486 7.64647 7.91066 7.77856 7.77856C7.91066 7.64647 7.98486 7.46732 7.98486 7.28052C7.98486 7.09371 7.91066 6.91456 7.77856 6.78247L4.9936 3.99927Z" fill="#02060C"/>
</svg>
