<svg width="28" height="26" viewBox="0 0 28 26" fill="none" xmlns="http://www.w3.org/2000/svg">
<path fill-rule="evenodd" clip-rule="evenodd" d="M14.7994 0.988305C14.7257 0.841725 14.6118 0.718314 14.4704 0.632022C14.3291 0.545731 14.166 0.5 13.9996 0.5C13.8332 0.5 13.6701 0.545731 13.5287 0.632022C13.3874 0.718314 13.2735 0.841725 13.1998 0.988305L9.56412 8.22812L1.43174 9.38938C1.26707 9.41288 1.11237 9.48115 0.985125 9.58649C0.857884 9.69183 0.763177 9.83004 0.711708 9.98548C0.66024 10.1409 0.654062 10.3074 0.693873 10.4661C0.733685 10.6248 0.817898 10.7695 0.936994 10.8836L6.82161 16.5182L5.43252 24.4753C5.40432 24.6365 5.42258 24.8022 5.48524 24.9536C5.5479 25.1051 5.65245 25.2363 5.78708 25.3325C5.92171 25.4286 6.08104 25.4859 6.24705 25.4977C6.41305 25.5095 6.57912 25.4755 6.72647 25.3995L14.0002 21.6423L21.2751 25.3995C21.4223 25.4754 21.5883 25.5094 21.7541 25.4976C21.92 25.4858 22.0792 25.4287 22.2138 25.3327C22.3484 25.2367 22.453 25.1057 22.5157 24.9544C22.5785 24.8031 22.597 24.6376 22.569 24.4765L21.1799 16.5182L27.0646 10.8836C27.184 10.7695 27.2685 10.6248 27.3085 10.4659C27.3486 10.307 27.3425 10.1403 27.291 9.98465C27.2395 9.82899 27.1446 9.69062 27.0172 9.5852C26.8897 9.47978 26.7347 9.41154 26.5698 9.38822L18.4374 8.22812L14.7994 0.988305Z" fill="#2D353F"/>
</svg>
