<?xml version="1.0" encoding="utf-8"?><svg viewBox="0 0 16 15" xmlns="http://www.w3.org/2000/svg" xmlns:xlink="http://www.w3.org/1999/xlink"><style>:root>svg{display:none}:root>svg:target{display:block}</style><svg fill="none" viewBox="0 0 14 14" id="dandruff-input" xmlns="http://www.w3.org/2000/svg"><path d="M13.272 12.168l-2.94-2.94A5.431 5.431 0 0011.42 5.96C11.42 2.95 8.97.5 5.96.5S.5 2.95.5 5.96s2.45 5.46 5.46 5.46a5.431 5.431 0 003.268-1.089l2.94 2.94a.782.782 0 001.104-1.103zM2.06 5.96a3.9 3.9 0 117.8 0 3.9 3.9 0 01-7.8 0z" fill="#485462"/></svg><svg fill="none" viewBox="0 0 16 15" id="enter-icon" xmlns="http://www.w3.org/2000/svg"><path d="M11.181 7.744a.827.827 0 00.234-.577.801.801 0 00-.234-.577L7.407 2.815a.819.819 0 00-1.17 0 .819.819 0 000 1.17l2.37 2.37h-7.11a.832.832 0 00-.827.827c0 .452.374.827.826.827h7.127l-2.386 2.354a.819.819 0 000 1.17.819.819 0 001.17 0l3.774-3.79z" fill="#fff"/><path d="M10.527 1.069c0 .452.375.826.827.826h2.495v10.558h-2.495a.832.832 0 00-.827.827c0 .452.375.826.827.826h3.322a.832.832 0 00.826-.826V1.069a.832.832 0 00-.826-.827h-3.338a.809.809 0 00-.81.827z" fill="#fff"/></svg></svg>