<?xml version="1.0" encoding="utf-8"?><svg viewBox="0 0 28 26" xmlns="http://www.w3.org/2000/svg" xmlns:xlink="http://www.w3.org/1999/xlink"><style>:root>svg{display:none}:root>svg:target{display:block}</style><svg fill="none" viewBox="0 0 18 20" id="apple" xmlns="http://www.w3.org/2000/svg"><path d="M17.16 15.586c-.303.699-.661 1.342-1.076 1.933-.565.807-1.028 1.365-1.385 1.674-.553.509-1.146.77-1.78.784-.456 0-1.005-.13-1.645-.392-.641-.262-1.23-.392-1.77-.392-.565 0-1.172.13-1.82.392-.65.263-1.173.4-1.573.413-.609.026-1.215-.242-1.82-.805-.387-.337-.87-.914-1.45-1.733-.62-.874-1.132-1.888-1.532-3.043C.881 13.169.666 11.96.666 10.79c0-1.34.29-2.496.87-3.465a5.102 5.102 0 011.821-1.842 4.9 4.9 0 012.463-.695c.483 0 1.117.15 1.905.443.785.295 1.29.444 1.51.444.166 0 .726-.175 1.676-.523.898-.323 1.656-.457 2.277-.404 1.682.135 2.947.799 3.787 1.994-1.505.912-2.249 2.189-2.234 3.827.014 1.276.476 2.338 1.386 3.181.413.392.873.694 1.385.909-.11.322-.228.63-.353.927zM13.3.4c0 1-.365 1.934-1.094 2.799-.879 1.027-1.942 1.621-3.095 1.527a3.114 3.114 0 01-.023-.379c0-.96.418-1.987 1.16-2.828.371-.425.842-.779 1.414-1.061.57-.278 1.11-.432 1.617-.458.015.134.021.267.021.4z" fill="#000"/></svg><svg fill="none" viewBox="0 0 8 14" id="back-arrow" xmlns="http://www.w3.org/2000/svg"><path d="M6.813 1.375L1.188 7l5.625 5.625" stroke="#fff" stroke-width="2" stroke-linecap="round" stroke-linejoin="round"/></svg><svg fill="none" viewBox="0 0 14 14" id="dandruff-input" xmlns="http://www.w3.org/2000/svg"><path d="M13.272 12.168l-2.94-2.94A5.431 5.431 0 0011.42 5.96C11.42 2.95 8.97.5 5.96.5S.5 2.95.5 5.96s2.45 5.46 5.46 5.46a5.431 5.431 0 003.268-1.089l2.94 2.94a.782.782 0 001.104-1.103zM2.06 5.96a3.9 3.9 0 117.8 0 3.9 3.9 0 01-7.8 0z" fill="#485462"/></svg><svg fill="none" viewBox="0 0 16 15" id="enter-icon" xmlns="http://www.w3.org/2000/svg"><path d="M11.181 7.744a.827.827 0 00.234-.577.801.801 0 00-.234-.577L7.407 2.815a.819.819 0 00-1.17 0 .819.819 0 000 1.17l2.37 2.37h-7.11a.832.832 0 00-.827.827c0 .452.374.827.826.827h7.127l-2.386 2.354a.819.819 0 000 1.17.819.819 0 001.17 0l3.774-3.79z" fill="#fff"/><path d="M10.527 1.069c0 .452.375.826.827.826h2.495v10.558h-2.495a.832.832 0 00-.827.827c0 .452.375.826.827.826h3.322a.832.832 0 00.826-.826V1.069a.832.832 0 00-.826-.827h-3.338a.809.809 0 00-.81.827z" fill="#fff"/></svg><svg fill="none" viewBox="0 0 20 20" id="estimates" xmlns="http://www.w3.org/2000/svg"><path fill-rule="evenodd" clip-rule="evenodd" d="M10.599.991a.678.678 0 00-1.2 0l-2.727 5.43-6.1.871a.675.675 0 00-.334.148.657.657 0 00-.219.66c.03.119.093.227.183.313l4.413 4.226-1.042 5.968a.646.646 0 00.266.642.677.677 0 00.705.05l5.455-2.817 5.456 2.818a.68.68 0 00.704-.05.659.659 0 00.267-.643l-1.042-5.968 4.413-4.226a.654.654 0 00.17-.675.657.657 0 00-.205-.3.675.675 0 00-.336-.147l-6.099-.87L10.6.991z" fill="#fff"/></svg><svg fill="none" viewBox="0 0 24 24" id="facebook" xmlns="http://www.w3.org/2000/svg"><path d="M24 12c0-6.627-5.373-12-12-12S0 5.373 0 12c0 5.99 4.388 10.954 10.125 11.854V15.47H7.078V12h3.047V9.356c0-3.007 1.792-4.668 4.533-4.668 1.312 0 2.686.234 2.686.234v2.953H15.83c-1.491 0-1.956.925-1.956 1.875V12h3.328l-.532 3.469h-2.796v8.385C19.612 22.954 24 17.99 24 12z" fill="#fff"/></svg><svg fill="none" viewBox="0 0 20 20" id="facebook-login" xmlns="http://www.w3.org/2000/svg"><path d="M20 10c0-5.523-4.477-10-10-10S0 4.477 0 10c0 4.991 3.657 9.128 8.438 9.878v-6.987h-2.54V10h2.54V7.797c0-2.506 1.492-3.89 3.777-3.89 1.093 0 2.238.195 2.238.195v2.46h-1.26c-1.243 0-1.63.771-1.63 1.563V10h2.773l-.443 2.89h-2.33v6.988C16.343 19.128 20 14.991 20 10z" fill="#1877F2"/><path d="M13.893 12.89l.443-2.89h-2.774V8.125c0-.79.388-1.563 1.63-1.563h1.261v-2.46s-1.144-.196-2.238-.196c-2.285 0-3.777 1.385-3.777 3.89V10h-2.54v2.89h2.54v6.988c1.035.163 2.09.163 3.124 0v-6.987h2.33z" fill="#fff"/></svg><svg fill="none" viewBox="0 0 20 20" id="google" xmlns="http://www.w3.org/2000/svg"><g clip-path="url(#hclip0_78_385)"><path d="M19.804 10.23c0-.68-.055-1.363-.172-2.032h-9.433v3.851h5.402a4.63 4.63 0 01-2 3.039v2.498h3.223c1.893-1.741 2.98-4.313 2.98-7.356z" fill="#4285F4"/><path d="M10.2 20c2.697 0 4.971-.885 6.629-2.413l-3.223-2.499c-.896.61-2.054.955-3.402.955-2.61 0-4.821-1.76-5.615-4.126H1.264v2.576A10.001 10.001 0 0010.2 20z" fill="#34A853"/><path d="M4.585 11.917a5.99 5.99 0 010-3.829V5.513H1.263a10.008 10.008 0 000 8.98l3.322-2.576z" fill="#FBBC04"/><path d="M10.2 3.958a5.434 5.434 0 013.836 1.5l2.855-2.856A9.611 9.611 0 0010.2.001a9.998 9.998 0 00-8.936 5.511l3.321 2.576c.79-2.37 3.006-4.13 5.615-4.13z" fill="#EA4335"/></g><defs><clipPath id="hclip0_78_385"><path fill="#fff" d="M0 0h20v20H0z"/></clipPath></defs></svg><svg fill="none" viewBox="0 0 17 16" id="history-icon" xmlns="http://www.w3.org/2000/svg"><path d="M13.881 2.623C10.923-.336 6.12-.37 3.111 2.54L2.047 1.476a.554.554 0 00-.532-.133.567.567 0 00-.349.399L.352 5.664a.511.511 0 00.133.466c.133.133.299.183.482.133l3.922-.815c.2-.033.35-.166.4-.365a.564.564 0 00-.134-.532l-1.08-1.047c2.477-2.377 6.416-2.344 8.842.083 2.46 2.46 2.46 6.465 0 8.942a6.258 6.258 0 01-4.47 1.845 6.327 6.327 0 01-4.472-1.845 6.26 6.26 0 01-1.761-3.407c-.067-.366-.416-.632-.782-.565a.701.701 0 00-.565.78 7.62 7.62 0 002.144 4.14 7.63 7.63 0 005.435 2.243 7.63 7.63 0 005.435-2.244c2.992-2.991 2.992-7.861 0-10.853z" fill="#535D6F"/><path d="M8.496 3.238c-.382 0-.682.3-.682.682v4.138c0 .25.133.482.35.599l2.194 1.213c.1.066.216.083.332.083a.72.72 0 00.598-.349.683.683 0 00-.266-.93L9.177 7.658V3.92c0-.382-.299-.68-.681-.68z" fill="#535D6F"/></svg><svg fill="none" viewBox="0 0 20 20" id="instagram" xmlns="http://www.w3.org/2000/svg"><path d="M10 1.8c2.672 0 2.988.012 4.04.06.976.042 1.503.206 1.855.343.464.18.8.399 1.148.746.352.352.566.684.746 1.149.137.351.3.882.344 1.855.047 1.055.058 1.371.058 4.04 0 2.671-.011 2.987-.058 4.038-.043.977-.207 1.504-.344 1.856-.18.465-.398.8-.746 1.148a3.075 3.075 0 01-1.148.746c-.352.137-.883.301-1.856.344-1.055.047-1.371.059-4.039.059-2.672 0-2.988-.012-4.04-.059-.976-.043-1.503-.207-1.855-.344-.464-.18-.8-.398-1.148-.746a3.076 3.076 0 01-.746-1.148c-.137-.352-.3-.883-.344-1.856-.047-1.054-.058-1.37-.058-4.039 0-2.672.011-2.988.058-4.039.043-.976.207-1.504.344-1.855.18-.465.398-.801.746-1.149a3.076 3.076 0 011.148-.746c.352-.137.883-.3 1.856-.344 1.05-.046 1.367-.058 4.039-.058zM10 0C7.285 0 6.945.012 5.879.059 4.816.105 4.086.277 3.453.523A4.88 4.88 0 001.68 1.68 4.9 4.9 0 00.523 3.45C.277 4.085.105 4.811.06 5.874.012 6.945 0 7.285 0 10s.012 3.055.059 4.121c.046 1.063.218 1.793.464 2.426.258.66.598 1.219 1.157 1.773a4.89 4.89 0 001.77 1.153c.636.246 1.362.418 2.425.465 1.066.046 1.406.058 4.121.058 2.715 0 3.055-.012 4.121-.058 1.063-.047 1.793-.22 2.426-.465a4.89 4.89 0 001.77-1.153 4.888 4.888 0 001.152-1.77c.246-.636.418-1.363.465-2.425.047-1.066.058-1.406.058-4.121 0-2.715-.011-3.055-.058-4.121-.047-1.063-.22-1.793-.465-2.426A4.684 4.684 0 0018.32 1.68 4.889 4.889 0 0016.55.527C15.915.281 15.188.11 14.126.062 13.055.012 12.715 0 10 0z" fill="#fff"/><path d="M10 4.863A5.138 5.138 0 004.863 10a5.138 5.138 0 0010.273 0c0-2.836-2.3-5.137-5.136-5.137zm0 8.469a3.333 3.333 0 11.001-6.665A3.333 3.333 0 0110 13.332zM16.54 4.66a1.2 1.2 0 11-2.4 0 1.2 1.2 0 012.4 0z" fill="#fff"/></svg><svg fill="none" viewBox="0 0 22 22" id="link" xmlns="http://www.w3.org/2000/svg"><path fill-rule="evenodd" clip-rule="evenodd" d="M10.663 3.913a1.125 1.125 0 001.59 1.59l1.875-1.875a3.001 3.001 0 114.245 4.245l-3.75 3.75a3 3 0 01-4.245 0 1.125 1.125 0 00-1.59 1.59 5.251 5.251 0 007.425 0l3.75-3.75a5.25 5.25 0 00-7.425-7.425l-1.875 1.875zm-7.035 14.46a3 3 0 010-4.245l3.75-3.75a2.999 2.999 0 014.245 0 1.125 1.125 0 001.59-1.59 5.25 5.25 0 00-7.425 0l-3.75 3.75a5.25 5.25 0 107.425 7.425l1.875-1.875a1.125 1.125 0 00-1.59-1.59l-1.875 1.875a3 3 0 01-4.245 0z" fill="#fff"/></svg><svg fill="none" viewBox="0 0 16 16" id="log-out" xmlns="http://www.w3.org/2000/svg"><path d="M5.222 14l-1.38-.373a1.108 1.108 0 01-.607-.425A1.263 1.263 0 013 12.463V3.537c0-.268.083-.528.235-.739.153-.21.366-.36.607-.425L5.222 2M13 8H6.333 13zm0 0l-2.222 2.4L13 8zm0 0l-2.222-2.4L13 8z" stroke="#fff" stroke-width="2" stroke-linecap="round" stroke-linejoin="round"/></svg><svg fill="none" viewBox="0 0 8 14" id="more-movie" xmlns="http://www.w3.org/2000/svg"><path d="M1.188 1.375L6.813 7l-5.625 5.625" stroke="#368CFC" stroke-width="2" stroke-linecap="round" stroke-linejoin="round"/></svg><svg fill="none" viewBox="0 0 14 16" id="play" xmlns="http://www.w3.org/2000/svg"><path d="M.062 2.232C.062.692 1.73-.27 3.062.5l9.696 5.598c1.334.77 1.334 2.694 0 3.464L3.062 15.16c-1.333.77-3-.192-3-1.732V2.232z" fill="#fff"/></svg><svg fill="none" viewBox="0 0 8 8" id="score-credited" xmlns="http://www.w3.org/2000/svg"><path d="M4.994 4l2.783-2.784A.704.704 0 106.782.22L4 3.003 1.216.22a.704.704 0 10-.996.996L3.003 4 .22 6.782a.704.704 0 10.996.997L4 4.995 6.782 7.78a.704.704 0 10.997-.997L4.994 4z" fill="#02060C"/></svg><svg fill="none" viewBox="0 0 14 14" id="search-close" xmlns="http://www.w3.org/2000/svg"><path d="M8.657 7l4.639-4.639a1.173 1.173 0 00-1.657-1.66L7 5.34 2.361.7a1.174 1.174 0 10-1.66 1.66l4.639 4.64L.7 11.638a1.174 1.174 0 101.66 1.66l4.64-4.639 4.638 4.639a1.173 1.173 0 101.66-1.66L8.657 7z" fill="#545D6C"/></svg><svg fill="none" viewBox="0 0 14 8" id="selected-arrow" xmlns="http://www.w3.org/2000/svg"><path d="M1.375 6.813L7 1.188l5.625 5.625" stroke="#fff" stroke-width="2" stroke-linecap="round" stroke-linejoin="round"/></svg><svg fill="none" viewBox="0 0 14 8" id="selected-arrow.svg" xmlns="http://www.w3.org/2000/svg"><path d="M1.375 6.813L7 1.188l5.625 5.625" stroke="#fff" stroke-width="2" stroke-linecap="round" stroke-linejoin="round"/></svg><svg fill="none" viewBox="0 0 14 12" id="share" xmlns="http://www.w3.org/2000/svg"><path d="M1 8.778l.373 1.38c.064.24.214.454.425.607.211.152.471.235.739.235h8.926c.268 0 .528-.083.739-.235.21-.153.36-.366.425-.607L13 8.778M7 1v6.667V1zm0 0L4.6 3.222 7 1zm0 0l2.4 2.222L7 1z" stroke="#fff" stroke-width="2" stroke-linecap="round" stroke-linejoin="round"/></svg><svg fill="none" viewBox="0 0 28 26" id="star-rating" xmlns="http://www.w3.org/2000/svg"><path fill-rule="evenodd" clip-rule="evenodd" d="M14.8.988a.882.882 0 00-.33-.356.904.904 0 00-1.27.356l-3.636 7.24L1.432 9.39a.9.9 0 00-.447.197.861.861 0 00-.048 1.297l5.885 5.635-1.39 7.957a.862.862 0 00.355.857.902.902 0 00.94.067L14 21.642l7.275 3.758a.906.906 0 00.939-.067.861.861 0 00.355-.856l-1.39-7.959 5.886-5.634a.873.873 0 00.226-.9.876.876 0 00-.274-.399.9.9 0 00-.447-.197l-8.133-1.16L14.8.988z" fill="#2D353F"/></svg><svg fill="none" viewBox="0 0 17 14" id="telegram-icon" xmlns="http://www.w3.org/2000/svg"><path fill-rule="evenodd" clip-rule="evenodd" d="M1.169 6.027c4.563-1.976 7.606-3.278 9.129-3.908C14.645.323 15.548.01 16.137 0c.13-.002.419.03.607.181.158.128.201.3.222.421.021.121.047.397.026.613-.235 2.46-1.255 8.428-1.773 11.183-.22 1.166-.652 1.557-1.07 1.595-.909.083-1.6-.597-2.48-1.17-1.377-.898-2.156-1.457-3.493-2.332-1.546-1.012-.544-1.569.337-2.478.23-.238 4.236-3.858 4.313-4.186.01-.041.02-.195-.072-.275-.092-.081-.227-.054-.324-.032-.139.032-2.34 1.477-6.603 4.337-.625.427-1.191.634-1.698.623-.559-.012-1.634-.314-2.433-.572-.98-.316-1.76-.484-1.692-1.022.035-.28.424-.566 1.165-.86z" fill="#fff"/></svg><svg fill="none" viewBox="0 0 22 12" id="triangel" xmlns="http://www.w3.org/2000/svg"><path d="M9.69 10.866a2 2 0 002.62 0L20.8 3.512C22.201 2.3 21.344 0 19.492 0H2.508C.656 0-.202 2.3 1.198 3.512l8.493 7.354z" fill="#fff"/></svg><svg fill="none" viewBox="0 0 24 20" id="twitter" xmlns="http://www.w3.org/2000/svg"><path d="M7.55 19.75c9.055 0 14.008-7.504 14.008-14.008 0-.211-.004-.427-.014-.638A10 10 0 0024 2.555c-.898.4-1.85.66-2.826.773A4.95 4.95 0 0023.339.606 9.898 9.898 0 0120.213 1.8a4.93 4.93 0 00-8.394 4.49A13.984 13.984 0 011.673 1.15a4.93 4.93 0 001.523 6.57 4.93 4.93 0 01-2.23-.614v.06a4.922 4.922 0 003.95 4.829 4.893 4.893 0 01-2.221.084 4.934 4.934 0 004.597 3.422A9.875 9.875 0 010 17.538a13.969 13.969 0 007.55 2.212z" fill="#fff"/></svg><svg fill="none" viewBox="0 0 15 16" id="user" xmlns="http://www.w3.org/2000/svg"><path d="M13.444 15v-1.555a3.111 3.111 0 00-3.11-3.111H4.11A3.111 3.111 0 001 13.445v1.556M7.222 7.222a3.111 3.111 0 100-6.222 3.111 3.111 0 000 6.222z" stroke="#fff" stroke-width="2" stroke-linecap="round" stroke-linejoin="round"/></svg></svg>